<svg width="281" height="450" viewBox="0 0 281 450" fill="none" xmlns="http://www.w3.org/2000/svg">
<path d="M117.754 450C146.772 402.418 266.248 252.41 213.838 205.995C202.663 196.344 182.488 192.36 166.426 190.52C144.702 187.674 120.94 184.127 103.731 170.006C79.281 150.574 76.5791 118.472 85.0806 92.7005C96.7221 56.6072 123.672 26.8287 151.028 0C131.057 32.2619 108.963 64.0885 103.043 100.617C98.3315 133.422 112.065 158.521 151.172 162.973C163.554 164.811 178.695 165.948 191.312 168.223C213.376 172.127 238.807 184.835 248.577 205.3C284.15 279.348 171.771 399.238 117.782 449.998H117.752L117.754 450Z" fill="#BCA483"/>
<path d="M51.6049 322.53C109.043 337.019 168.749 308.636 204.811 269.181C218.342 255.029 230.325 239.506 235.612 221.962C242.997 188.611 207.365 184.782 180.415 196.271C160.102 204.164 128.548 213.809 104.213 201.963C84.5283 194.174 75.9966 170.579 81.8547 153.275C95.0148 110.351 154.81 70.559 195.435 48.2855C222.044 34.7541 251.032 24.4573 281.001 21.4023C238.421 34.8285 202.388 57.4957 170.116 84.9448C149.63 102.306 128.277 121.401 114.92 143.237C103.458 161.759 103.284 182.072 132.159 181.555C154.17 180.546 171.635 168.823 194.106 165.436C212.636 162.461 233.99 165.928 248.095 178.628C293.666 224.268 225.081 283.569 183.733 308.638C145.202 330.168 93.7426 341.085 51.5625 322.507L51.5928 322.532H51.6049V322.53Z" fill="#221F20"/>
<path d="M21.58 154.507C30.3702 142.654 47.0944 133.759 63.962 135.308C100.916 139.421 103.038 179.941 83.1862 201.592C76.0296 209.897 66.6639 216.776 55.5433 220.687C32.5591 230.032 1.06339 219.992 0.0294883 194.535C-0.400633 184.133 3.91067 174.611 10.6008 167.547C0.800874 193.496 16.9799 218.67 48.302 205.478C68.4712 197.173 88.1861 169.515 71.5204 151.871C58.7056 140.381 36.2061 145.895 21.58 154.509V154.507Z" fill="#221F20"/>
</svg>
